<svg xmlns="http://www.w3.org/2000/svg" width="120" height="120" viewBox="0 0 120 120" fill="none">
  <rect width="120" height="120" rx="28" fill="#FFF8F5"/>
  <rect x="0.5" y="0.5" width="119" height="119" rx="27.5" stroke="#F3D7CC"/>
  <g transform="translate(16 10)">
    <g fill="#FF5528">
      <path d="M21.33 8.59c-2.57 0-4.41 1.84-4.41 4.41v42.64c0 20.59 16.55 37.51 37.14 37.51h19.84c2.57 0 4.41-1.84 4.41-4.41s-1.84-4.41-4.41-4.41H54.06c-15.81 0-28.31-12.87-28.31-28.68V13c0-2.57-1.84-4.41-4.41-4.41Z"/>
      <path d="M38.98 24.77c0-1.84 1.1-3.31 2.94-4.04 1.84-.73 3.68-.37 5.15 1.1l12.5 12.87 12.5-12.87c1.1-1.47 3.31-1.84 5.15-1.1 1.84.73 2.94 2.2 2.94 4.04v40.07c0 2.57-1.84 4.41-4.41 4.41s-4.41-1.84-4.41-4.41V35.43L62.88 44.25c-1.84 1.84-4.41 1.84-6.25 0l-8.82-8.82v29.41c0 2.57-1.84 4.41-4.41 4.41s-4.41-1.84-4.41-4.41V24.77Z"/>
      <rect x="66.92" y="44.25" width="5.15" height="28.68" rx="2.57"/>
      <circle cx="69.49" cy="75.88" r="10.29"/>
    </g>
  </g>
</svg>
